<mxfile host="Electron" modified="2021-03-17T15:49:29.137Z" agent="5.0 (Windows NT 10.0; Win64; x64) AppleWebKit/537.36 (KHTML, like Gecko) draw.io/14.1.8 Chrome/87.0.4280.88 Electron/11.1.1 Safari/537.36" etag="bDbu4Ocg4TJ1WmYxcOdH" compressed="false" version="14.1.8" type="device">
  <diagram id="XGFFwwvSIUEINpOgfZ37" name="Seite-1">
    <mxGraphModel dx="769" dy="484" grid="1" gridSize="10" guides="1" tooltips="1" connect="1" arrows="1" fold="1" page="1" pageScale="1" pageWidth="827" pageHeight="1169" math="0" shadow="0">
      <root>
        <mxCell id="0" />
        <mxCell id="1" parent="0" />
        <mxCell id="ougfVMjO-gWmEsosyjNG-22" value="" style="rounded=1;whiteSpace=wrap;html=1;fillColor=#f8cecc;strokeColor=#b85450;" vertex="1" parent="1">
          <mxGeometry x="180" y="360" width="400" height="90" as="geometry" />
        </mxCell>
        <mxCell id="ougfVMjO-gWmEsosyjNG-21" value="" style="rounded=1;whiteSpace=wrap;html=1;fillColor=#ffe6cc;strokeColor=#d79b00;" vertex="1" parent="1">
          <mxGeometry x="160" y="270" width="440" height="90" as="geometry" />
        </mxCell>
        <mxCell id="ougfVMjO-gWmEsosyjNG-20" value="" style="rounded=1;whiteSpace=wrap;html=1;fillColor=#fff2cc;strokeColor=#d6b656;" vertex="1" parent="1">
          <mxGeometry x="140" y="180" width="480" height="90" as="geometry" />
        </mxCell>
        <mxCell id="ougfVMjO-gWmEsosyjNG-19" value="" style="rounded=1;whiteSpace=wrap;html=1;fillColor=#d5e8d4;strokeColor=#82b366;" vertex="1" parent="1">
          <mxGeometry x="120" y="90" width="520" height="90" as="geometry" />
        </mxCell>
        <mxCell id="ougfVMjO-gWmEsosyjNG-1" value="Anforderungsspezifikation" style="rounded=1;whiteSpace=wrap;html=1;fillColor=#cdeb8b;strokeColor=#36393d;" vertex="1" parent="1">
          <mxGeometry x="140" y="110" width="160" height="50" as="geometry" />
        </mxCell>
        <mxCell id="ougfVMjO-gWmEsosyjNG-2" value="Grobentwurf" style="rounded=1;whiteSpace=wrap;html=1;fillColor=#ffff88;strokeColor=#36393d;" vertex="1" parent="1">
          <mxGeometry x="160" y="200" width="160" height="50" as="geometry" />
        </mxCell>
        <mxCell id="ougfVMjO-gWmEsosyjNG-3" value="Feinentwurf" style="rounded=1;whiteSpace=wrap;html=1;fillColor=#ffcc99;strokeColor=#36393d;" vertex="1" parent="1">
          <mxGeometry x="180" y="290" width="160" height="50" as="geometry" />
        </mxCell>
        <mxCell id="ougfVMjO-gWmEsosyjNG-4" value="Modul-&lt;br&gt;implementierung" style="rounded=1;whiteSpace=wrap;html=1;fillColor=#ffcccc;strokeColor=#36393d;" vertex="1" parent="1">
          <mxGeometry x="200" y="380" width="160" height="50" as="geometry" />
        </mxCell>
        <mxCell id="ougfVMjO-gWmEsosyjNG-5" value="Abnahmetest" style="rounded=1;whiteSpace=wrap;html=1;fillColor=#cdeb8b;strokeColor=#36393d;" vertex="1" parent="1">
          <mxGeometry x="460" y="110" width="160" height="50" as="geometry" />
        </mxCell>
        <mxCell id="ougfVMjO-gWmEsosyjNG-6" value="Systemtest" style="rounded=1;whiteSpace=wrap;html=1;fillColor=#ffff88;strokeColor=#36393d;" vertex="1" parent="1">
          <mxGeometry x="440" y="200" width="160" height="50" as="geometry" />
        </mxCell>
        <mxCell id="ougfVMjO-gWmEsosyjNG-7" value="Integrationstest" style="rounded=1;whiteSpace=wrap;html=1;fillColor=#ffcc99;strokeColor=#36393d;" vertex="1" parent="1">
          <mxGeometry x="420" y="290" width="160" height="50" as="geometry" />
        </mxCell>
        <mxCell id="ougfVMjO-gWmEsosyjNG-8" value="Modul- / Unittest" style="rounded=1;whiteSpace=wrap;html=1;fillColor=#ffcccc;strokeColor=#36393d;" vertex="1" parent="1">
          <mxGeometry x="400" y="380" width="160" height="50" as="geometry" />
        </mxCell>
        <mxCell id="ougfVMjO-gWmEsosyjNG-9" value="" style="endArrow=classic;html=1;exitX=1;exitY=0.5;exitDx=0;exitDy=0;entryX=0;entryY=0.5;entryDx=0;entryDy=0;strokeWidth=2;" edge="1" parent="1" source="ougfVMjO-gWmEsosyjNG-4" target="ougfVMjO-gWmEsosyjNG-8">
          <mxGeometry width="50" height="50" relative="1" as="geometry">
            <mxPoint x="330" y="510" as="sourcePoint" />
            <mxPoint x="380" y="460" as="targetPoint" />
          </mxGeometry>
        </mxCell>
        <mxCell id="ougfVMjO-gWmEsosyjNG-10" value="" style="endArrow=classic;html=1;exitX=0.5;exitY=1;exitDx=0;exitDy=0;entryX=0.5;entryY=0;entryDx=0;entryDy=0;" edge="1" parent="1" source="ougfVMjO-gWmEsosyjNG-3" target="ougfVMjO-gWmEsosyjNG-4">
          <mxGeometry width="50" height="50" relative="1" as="geometry">
            <mxPoint x="210" y="370" as="sourcePoint" />
            <mxPoint x="260" y="320" as="targetPoint" />
          </mxGeometry>
        </mxCell>
        <mxCell id="ougfVMjO-gWmEsosyjNG-11" value="" style="endArrow=none;html=1;exitX=0.5;exitY=1;exitDx=0;exitDy=0;entryX=0.5;entryY=0;entryDx=0;entryDy=0;startArrow=classic;startFill=1;endFill=0;" edge="1" parent="1" source="ougfVMjO-gWmEsosyjNG-7" target="ougfVMjO-gWmEsosyjNG-8">
          <mxGeometry width="50" height="50" relative="1" as="geometry">
            <mxPoint x="640" y="350" as="sourcePoint" />
            <mxPoint x="690" y="300" as="targetPoint" />
          </mxGeometry>
        </mxCell>
        <mxCell id="ougfVMjO-gWmEsosyjNG-12" value="" style="endArrow=classic;html=1;exitX=1;exitY=0.5;exitDx=0;exitDy=0;entryX=0;entryY=0.5;entryDx=0;entryDy=0;strokeWidth=2;" edge="1" parent="1" source="ougfVMjO-gWmEsosyjNG-3" target="ougfVMjO-gWmEsosyjNG-7">
          <mxGeometry width="50" height="50" relative="1" as="geometry">
            <mxPoint x="360" y="300" as="sourcePoint" />
            <mxPoint x="410" y="250" as="targetPoint" />
          </mxGeometry>
        </mxCell>
        <mxCell id="ougfVMjO-gWmEsosyjNG-13" value="" style="endArrow=classic;html=1;exitX=0.5;exitY=1;exitDx=0;exitDy=0;entryX=0.5;entryY=0;entryDx=0;entryDy=0;" edge="1" parent="1" source="ougfVMjO-gWmEsosyjNG-2" target="ougfVMjO-gWmEsosyjNG-3">
          <mxGeometry width="50" height="50" relative="1" as="geometry">
            <mxPoint x="230" y="270" as="sourcePoint" />
            <mxPoint x="280" y="220" as="targetPoint" />
          </mxGeometry>
        </mxCell>
        <mxCell id="ougfVMjO-gWmEsosyjNG-15" value="" style="endArrow=classic;html=1;exitX=1;exitY=0.5;exitDx=0;exitDy=0;entryX=0;entryY=0.5;entryDx=0;entryDy=0;strokeWidth=2;" edge="1" parent="1" source="ougfVMjO-gWmEsosyjNG-2" target="ougfVMjO-gWmEsosyjNG-6">
          <mxGeometry width="50" height="50" relative="1" as="geometry">
            <mxPoint x="360" y="250" as="sourcePoint" />
            <mxPoint x="410" y="200" as="targetPoint" />
          </mxGeometry>
        </mxCell>
        <mxCell id="ougfVMjO-gWmEsosyjNG-16" value="" style="endArrow=classic;html=1;exitX=1;exitY=0.5;exitDx=0;exitDy=0;entryX=0;entryY=0.5;entryDx=0;entryDy=0;strokeWidth=2;" edge="1" parent="1" source="ougfVMjO-gWmEsosyjNG-1" target="ougfVMjO-gWmEsosyjNG-5">
          <mxGeometry width="50" height="50" relative="1" as="geometry">
            <mxPoint x="320" y="110" as="sourcePoint" />
            <mxPoint x="370" y="60" as="targetPoint" />
          </mxGeometry>
        </mxCell>
        <mxCell id="ougfVMjO-gWmEsosyjNG-17" value="" style="endArrow=classic;html=1;exitX=0.5;exitY=1;exitDx=0;exitDy=0;entryX=0.5;entryY=0;entryDx=0;entryDy=0;" edge="1" parent="1" source="ougfVMjO-gWmEsosyjNG-1" target="ougfVMjO-gWmEsosyjNG-2">
          <mxGeometry width="50" height="50" relative="1" as="geometry">
            <mxPoint x="80" y="230" as="sourcePoint" />
            <mxPoint x="130" y="180" as="targetPoint" />
          </mxGeometry>
        </mxCell>
        <mxCell id="ougfVMjO-gWmEsosyjNG-23" value="" style="endArrow=classic;html=1;exitX=0.25;exitY=0;exitDx=0;exitDy=0;entryX=0.25;entryY=1;entryDx=0;entryDy=0;dashed=1;" edge="1" parent="1" source="ougfVMjO-gWmEsosyjNG-2" target="ougfVMjO-gWmEsosyjNG-1">
          <mxGeometry width="50" height="50" relative="1" as="geometry">
            <mxPoint x="80" y="240" as="sourcePoint" />
            <mxPoint x="130" y="190" as="targetPoint" />
          </mxGeometry>
        </mxCell>
        <mxCell id="ougfVMjO-gWmEsosyjNG-24" value="" style="endArrow=classic;html=1;dashed=1;exitX=0.25;exitY=0;exitDx=0;exitDy=0;entryX=0.25;entryY=1;entryDx=0;entryDy=0;" edge="1" parent="1" source="ougfVMjO-gWmEsosyjNG-3" target="ougfVMjO-gWmEsosyjNG-2">
          <mxGeometry width="50" height="50" relative="1" as="geometry">
            <mxPoint x="80" y="280" as="sourcePoint" />
            <mxPoint x="130" y="230" as="targetPoint" />
          </mxGeometry>
        </mxCell>
        <mxCell id="ougfVMjO-gWmEsosyjNG-25" value="" style="endArrow=classic;html=1;dashed=1;exitX=0.25;exitY=0;exitDx=0;exitDy=0;entryX=0.25;entryY=1;entryDx=0;entryDy=0;" edge="1" parent="1" source="ougfVMjO-gWmEsosyjNG-4" target="ougfVMjO-gWmEsosyjNG-3">
          <mxGeometry width="50" height="50" relative="1" as="geometry">
            <mxPoint x="90" y="360" as="sourcePoint" />
            <mxPoint x="140" y="310" as="targetPoint" />
          </mxGeometry>
        </mxCell>
        <mxCell id="ougfVMjO-gWmEsosyjNG-26" value="" style="endArrow=none;html=1;dashed=1;exitX=0.75;exitY=0;exitDx=0;exitDy=0;entryX=0.75;entryY=1;entryDx=0;entryDy=0;startArrow=classic;startFill=1;endFill=0;" edge="1" parent="1" source="ougfVMjO-gWmEsosyjNG-8" target="ougfVMjO-gWmEsosyjNG-7">
          <mxGeometry width="50" height="50" relative="1" as="geometry">
            <mxPoint x="70" y="390" as="sourcePoint" />
            <mxPoint x="120" y="340" as="targetPoint" />
          </mxGeometry>
        </mxCell>
        <mxCell id="ougfVMjO-gWmEsosyjNG-29" value="" style="endArrow=classic;html=1;dashed=1;strokeWidth=1;exitX=0.75;exitY=1;exitDx=0;exitDy=0;entryX=0.75;entryY=0;entryDx=0;entryDy=0;" edge="1" parent="1" source="ougfVMjO-gWmEsosyjNG-5" target="ougfVMjO-gWmEsosyjNG-6">
          <mxGeometry width="50" height="50" relative="1" as="geometry">
            <mxPoint x="610" y="230" as="sourcePoint" />
            <mxPoint x="660" y="180" as="targetPoint" />
          </mxGeometry>
        </mxCell>
        <mxCell id="ougfVMjO-gWmEsosyjNG-30" value="" style="endArrow=classic;html=1;dashed=1;strokeWidth=1;exitX=0.75;exitY=1;exitDx=0;exitDy=0;entryX=0.75;entryY=0;entryDx=0;entryDy=0;" edge="1" parent="1" source="ougfVMjO-gWmEsosyjNG-6" target="ougfVMjO-gWmEsosyjNG-7">
          <mxGeometry width="50" height="50" relative="1" as="geometry">
            <mxPoint x="610" y="320" as="sourcePoint" />
            <mxPoint x="660" y="270" as="targetPoint" />
          </mxGeometry>
        </mxCell>
        <mxCell id="ougfVMjO-gWmEsosyjNG-31" value="" style="endArrow=classic;html=1;strokeWidth=1;exitX=0.5;exitY=0;exitDx=0;exitDy=0;entryX=0.5;entryY=1;entryDx=0;entryDy=0;" edge="1" parent="1" source="ougfVMjO-gWmEsosyjNG-6" target="ougfVMjO-gWmEsosyjNG-5">
          <mxGeometry width="50" height="50" relative="1" as="geometry">
            <mxPoint x="620" y="240" as="sourcePoint" />
            <mxPoint x="670" y="190" as="targetPoint" />
          </mxGeometry>
        </mxCell>
        <mxCell id="ougfVMjO-gWmEsosyjNG-32" value="" style="endArrow=classic;html=1;strokeWidth=1;exitX=0.5;exitY=0;exitDx=0;exitDy=0;entryX=0.5;entryY=1;entryDx=0;entryDy=0;" edge="1" parent="1" source="ougfVMjO-gWmEsosyjNG-7" target="ougfVMjO-gWmEsosyjNG-6">
          <mxGeometry width="50" height="50" relative="1" as="geometry">
            <mxPoint x="630" y="250" as="sourcePoint" />
            <mxPoint x="680" y="200" as="targetPoint" />
          </mxGeometry>
        </mxCell>
      </root>
    </mxGraphModel>
  </diagram>
</mxfile>
